<svg id="Layer_1" data-name="Layer 1" xmlns="http://www.w3.org/2000/svg" viewBox="0 0 699.25 835"><defs><style>.cls-1{font-size:212.54px;fill:#cfc6ab;font-family:Butler-Bold, Butler;font-weight:700;}.cls-2{fill:#3b4f76;}</style></defs><title>monogram</title><text class="cls-1" transform="translate(522 286)">&amp;</text><path class="cls-2" d="M144,495V477c-63,0,9-72,9-72L459,72H423L126,405S63,477,0,477v18Z" transform="translate(0 -11)"/><path class="cls-2" d="M405,756a72,72,0,0,0,144,0V360H180l18-18H693v18a72,72,0,0,0-72,72V706.5a139.58,139.58,0,0,1-265.68,59.77h0A26,26,0,0,1,379,729.73,26.22,26.22,0,0,1,405,756" transform="translate(0 -11)"/><path class="cls-2" d="M490.5,846" transform="translate(0 -11)"/><path class="cls-2" d="M477.22,11,423,72V405a72,72,0,0,1-72,72v18H495V11Z" transform="translate(0 -11)"/></svg>